# xmcd
#
# Track frame offsets:
#	150
#	17725
#	36575
#	57013
#	71982
#	95892
#	112006
#	127397
#	140920
#	161855
#	178863
#	201629
#	220632
#	238233
#
# Disc length: 3388 seconds
#
# Revision: 1
# Processed by: cddbd v1.5.2PL0 Copyright (c) Steve Scherf et al.
# Submitted via: audiograbber 1.83.01
#
DISCID=f10d3a0e
DTITLE=Mad and Hungry - Travelin`
DYEAR=2007
DGENRE=Blues
TTITLE0=Who`s that man
TTITLE1=Chuck did
TTITLE2=A 1000 years
TTITLE3=Street bum
TTITLE4=Don`t give away your lovin
TTITLE5=Travelin`
TTITLE6=St.croix
TTITLE7=Blue spider
TTITLE8=You`re my world
TTITLE9=Seatbelts
TTITLE10=Katrina
TTITLE11=Mexican nightmare
TTITLE12=When she tells you
TTITLE13=This is not a tango
EXTD=
EXTT0=
EXTT1=
EXTT2=
EXTT3=
EXTT4=
EXTT5=
EXTT6=
EXTT7=
EXTT8=
EXTT9=
EXTT10=
EXTT11=
EXTT12=
EXTT13=
PLAYORDER=
